{
	"asset":{
		"generator":"Khronos glTF Blender I/O v4.0.44",
		"version":"2.0"
	},
	"extensionsUsed":[
		"KHR_materials_specular",
		"KHR_materials_ior"
	],
	"scene":0,
	"scenes":[
		{
			"name":"Scene",
			"nodes":[
				0,
				1,
				2,
				3,
				4,
				5,
				6,
				7
			]
		}
	],
	"nodes":[
		{
			"mesh":0,
			"name":"wall"
		},
		{
			"mesh":1,
			"name":"floor"
		},
		{
			"mesh":2,
			"name":"ceiling",
			"translation":[
				0,
				4,
				0
			]
		},
		{
			"mesh":3,
			"name":"octahedral1",
			"scale":[
				6.599999904632568,
				6.599999904632568,
				6.599999904632568
			],
			"translation":[
				-9.300000190734863,
				3.5,
				0.6700000166893005
			]
		},
		{
			"mesh":4,
			"name":"octahedral2",
			"scale":[
				6.599999904632568,
				6.599999904632568,
				6.599999904632568
			],
			"translation":[
				-9.300000190734863,
				3.5,
				9.300000190734863
			]
		},
		{
			"mesh":5,
			"name":"octahedral3",
			"scale":[
				6.599999904632568,
				6.599999904632568,
				6.599999904632568
			],
			"translation":[
				9.300000190734863,
				3.5,
				9.300000190734863
			]
		},
		{
			"mesh":6,
			"name":"octahedral4",
			"scale":[
				6.599999904632568,
				6.599999904632568,
				6.599999904632568
			],
			"translation":[
				9.300000190734863,
				3.5,
				-9.300000190734863
			]
		},
		{
			"mesh":7,
			"name":"octahedral5",
			"scale":[
				6.599999904632568,
				6.599999904632568,
				6.599999904632568
			],
			"translation":[
				0.699999988079071,
				3.5,
				-9.300000190734863
			]
		}
	],
	"materials":[
		{
			"doubleSided":true,
			"name":"Material_wall",
			"pbrMetallicRoughness":{
				"baseColorFactor":[
					0.800000011920929,
					0.800000011920929,
					0.800000011920929,
					1
				],
				"metallicFactor":0,
				"roughnessFactor":0.5
			}
		},
		{
			"doubleSided":true,
			"name":"Material_floor",
			"pbrMetallicRoughness":{
				"baseColorFactor":[
					0.800000011920929,
					0.800000011920929,
					0.800000011920929,
					1
				],
				"metallicFactor":0,
				"roughnessFactor":0.5
			}
		},
		{
			"doubleSided":true,
			"extensions":{
				"KHR_materials_specular":{
					"specularColorFactor":[
						1.600000023841858,
						1.600000023841858,
						1.600000023841858
					]
				},
				"KHR_materials_ior":{
					"ior":1.4500000476837158
				}
			},
			"name":"Material_ceiling",
			"pbrMetallicRoughness":{
				"baseColorFactor":[
					0.800000011920929,
					0.800000011920929,
					0.800000011920929,
					0.4000000059604645
				],
				"metallicFactor":0,
				"roughnessFactor":0.5
			}
		},
		{
			"doubleSided":true,
			"name":"Material",
			"pbrMetallicRoughness":{
				"baseColorFactor":[
					0.800000011920929,
					0.800000011920929,
					0.800000011920929,
					1
				],
				"roughnessFactor":0
			}
		},
		{
			"doubleSided":true,
			"name":"Material.001",
			"pbrMetallicRoughness":{
				"baseColorFactor":[
					0.800000011920929,
					0.800000011920929,
					0.800000011920929,
					1
				],
				"roughnessFactor":0
			}
		},
		{
			"doubleSided":true,
			"name":"Material.002",
			"pbrMetallicRoughness":{
				"baseColorFactor":[
					0.800000011920929,
					0.800000011920929,
					0.800000011920929,
					1
				],
				"roughnessFactor":0
			}
		},
		{
			"doubleSided":true,
			"name":"Material.003",
			"pbrMetallicRoughness":{
				"baseColorFactor":[
					0.800000011920929,
					0.800000011920929,
					0.800000011920929,
					1
				],
				"roughnessFactor":0
			}
		},
		{
			"doubleSided":true,
			"name":"Material.004",
			"pbrMetallicRoughness":{
				"baseColorFactor":[
					0.800000011920929,
					0.800000011920929,
					0.800000011920929,
					1
				],
				"roughnessFactor":0
			}
		}
	],
	"meshes":[
		{
			"name":"plane.006",
			"primitives":[
				{
					"attributes":{
						"POSITION":0,
						"NORMAL":1
					},
					"indices":2,
					"material":0
				}
			]
		},
		{
			"name":"plane.009",
			"primitives":[
				{
					"attributes":{
						"POSITION":3,
						"NORMAL":4
					},
					"indices":5,
					"material":1
				}
			]
		},
		{
			"name":"plane.010",
			"primitives":[
				{
					"attributes":{
						"POSITION":6,
						"NORMAL":7
					},
					"indices":8,
					"material":2
				}
			]
		},
		{
			"name":"cr3",
			"primitives":[
				{
					"attributes":{
						"POSITION":9,
						"NORMAL":10
					},
					"indices":11,
					"material":3
				}
			]
		},
		{
			"name":"cr3.001",
			"primitives":[
				{
					"attributes":{
						"POSITION":12,
						"NORMAL":13
					},
					"indices":11,
					"material":4
				}
			]
		},
		{
			"name":"cr3.002",
			"primitives":[
				{
					"attributes":{
						"POSITION":14,
						"NORMAL":15
					},
					"indices":11,
					"material":5
				}
			]
		},
		{
			"name":"cr3.003",
			"primitives":[
				{
					"attributes":{
						"POSITION":16,
						"NORMAL":17
					},
					"indices":11,
					"material":6
				}
			]
		},
		{
			"name":"cr3.004",
			"primitives":[
				{
					"attributes":{
						"POSITION":18,
						"NORMAL":19
					},
					"indices":11,
					"material":7
				}
			]
		}
	],
	"accessors":[
		{
			"bufferView":0,
			"componentType":5126,
			"count":72,
			"max":[
				10,
				4,
				10
			],
			"min":[
				-10,
				0,
				-10
			],
			"type":"VEC3"
		},
		{
			"bufferView":1,
			"componentType":5126,
			"count":72,
			"type":"VEC3"
		},
		{
			"bufferView":2,
			"componentType":5123,
			"count":144,
			"type":"SCALAR"
		},
		{
			"bufferView":3,
			"componentType":5126,
			"count":36,
			"max":[
				10,
				0,
				10
			],
			"min":[
				-10,
				-0.5,
				-10
			],
			"type":"VEC3"
		},
		{
			"bufferView":4,
			"componentType":5126,
			"count":36,
			"type":"VEC3"
		},
		{
			"bufferView":5,
			"componentType":5123,
			"count":60,
			"type":"SCALAR"
		},
		{
			"bufferView":6,
			"componentType":5126,
			"count":36,
			"max":[
				10,
				0.5,
				10
			],
			"min":[
				-10,
				0,
				-10
			],
			"type":"VEC3"
		},
		{
			"bufferView":7,
			"componentType":5126,
			"count":36,
			"type":"VEC3"
		},
		{
			"bufferView":8,
			"componentType":5123,
			"count":60,
			"type":"SCALAR"
		},
		{
			"bufferView":9,
			"componentType":5126,
			"count":378,
			"max":[
				0.029999999329447746,
				0.029999999329447746,
				0.029999999329447746
			],
			"min":[
				-0.029999999329447746,
				-0.029999999329447746,
				-0.029999999329447746
			],
			"type":"VEC3"
		},
		{
			"bufferView":10,
			"componentType":5126,
			"count":378,
			"type":"VEC3"
		},
		{
			"bufferView":11,
			"componentType":5123,
			"count":504,
			"type":"SCALAR"
		},
		{
			"bufferView":12,
			"componentType":5126,
			"count":378,
			"max":[
				0.029999999329447746,
				0.029999999329447746,
				0.029999999329447746
			],
			"min":[
				-0.029999999329447746,
				-0.029999999329447746,
				-0.029999999329447746
			],
			"type":"VEC3"
		},
		{
			"bufferView":13,
			"componentType":5126,
			"count":378,
			"type":"VEC3"
		},
		{
			"bufferView":14,
			"componentType":5126,
			"count":378,
			"max":[
				0.029999999329447746,
				0.029999999329447746,
				0.029999999329447746
			],
			"min":[
				-0.029999999329447746,
				-0.029999999329447746,
				-0.029999999329447746
			],
			"type":"VEC3"
		},
		{
			"bufferView":15,
			"componentType":5126,
			"count":378,
			"type":"VEC3"
		},
		{
			"bufferView":16,
			"componentType":5126,
			"count":378,
			"max":[
				0.029999999329447746,
				0.029999999329447746,
				0.029999999329447746
			],
			"min":[
				-0.029999999329447746,
				-0.029999999329447746,
				-0.029999999329447746
			],
			"type":"VEC3"
		},
		{
			"bufferView":17,
			"componentType":5126,
			"count":378,
			"type":"VEC3"
		},
		{
			"bufferView":18,
			"componentType":5126,
			"count":378,
			"max":[
				0.029999999329447746,
				0.029999999329447746,
				0.029999999329447746
			],
			"min":[
				-0.029999999329447746,
				-0.029999999329447746,
				-0.029999999329447746
			],
			"type":"VEC3"
		},
		{
			"bufferView":19,
			"componentType":5126,
			"count":378,
			"type":"VEC3"
		}
	],
	"bufferViews":[
		{
			"buffer":0,
			"byteLength":864,
			"byteOffset":0,
			"target":34962
		},
		{
			"buffer":0,
			"byteLength":864,
			"byteOffset":864,
			"target":34962
		},
		{
			"buffer":0,
			"byteLength":288,
			"byteOffset":1728,
			"target":34963
		},
		{
			"buffer":0,
			"byteLength":432,
			"byteOffset":2016,
			"target":34962
		},
		{
			"buffer":0,
			"byteLength":432,
			"byteOffset":2448,
			"target":34962
		},
		{
			"buffer":0,
			"byteLength":120,
			"byteOffset":2880,
			"target":34963
		},
		{
			"buffer":0,
			"byteLength":432,
			"byteOffset":3000,
			"target":34962
		},
		{
			"buffer":0,
			"byteLength":432,
			"byteOffset":3432,
			"target":34962
		},
		{
			"buffer":0,
			"byteLength":120,
			"byteOffset":3864,
			"target":34963
		},
		{
			"buffer":0,
			"byteLength":4536,
			"byteOffset":3984,
			"target":34962
		},
		{
			"buffer":0,
			"byteLength":4536,
			"byteOffset":8520,
			"target":34962
		},
		{
			"buffer":0,
			"byteLength":1008,
			"byteOffset":13056,
			"target":34963
		},
		{
			"buffer":0,
			"byteLength":4536,
			"byteOffset":14064,
			"target":34962
		},
		{
			"buffer":0,
			"byteLength":4536,
			"byteOffset":18600,
			"target":34962
		},
		{
			"buffer":0,
			"byteLength":4536,
			"byteOffset":23136,
			"target":34962
		},
		{
			"buffer":0,
			"byteLength":4536,
			"byteOffset":27672,
			"target":34962
		},
		{
			"buffer":0,
			"byteLength":4536,
			"byteOffset":32208,
			"target":34962
		},
		{
			"buffer":0,
			"byteLength":4536,
			"byteOffset":36744,
			"target":34962
		},
		{
			"buffer":0,
			"byteLength":4536,
			"byteOffset":41280,
			"target":34962
		},
		{
			"buffer":0,
			"byteLength":4536,
			"byteOffset":45816,
			"target":34962
		}
	],
	"buffers":[
		{
			"byteLength":50352,
			"uri":"room_octahedral.bin"
		}
	]
}
