{
	"asset":{
		"generator":"Khronos glTF Blender I/O v4.0.44",
		"version":"2.0"
	},
	"extensionsUsed":[
		"KHR_materials_specular",
		"KHR_materials_ior"
	],
	"scene":0,
	"scenes":[
		{
			"name":"Scene",
			"nodes":[
				0,
				1,
				2,
				3,
				4,
				5,
				6,
				7
			]
		}
	],
	"nodes":[
		{
			"mesh":0,
			"name":"wall"
		},
		{
			"mesh":1,
			"name":"floor"
		},
		{
			"mesh":2,
			"name":"ceiling",
			"translation":[
				0,
				4,
				0
			]
		},
		{
			"mesh":3,
			"name":"cr1",
			"rotation":[
				0.7071068286895752,
				0,
				0,
				0.7071068286895752
			],
			"scale":[
				8,
				8,
				8
			],
			"translation":[
				-9.300000190734863,
				3.5,
				0.699999988079071
			]
		},
		{
			"mesh":4,
			"name":"cr2",
			"scale":[
				8,
				8,
				8
			],
			"translation":[
				-9.300000190734863,
				3.5,
				9.300000190734863
			]
		},
		{
			"mesh":5,
			"name":"cr3",
			"rotation":[
				0,
				-0.7071068286895752,
				0.7071068286895752,
				3.090862321641907e-08
			],
			"scale":[
				8,
				8,
				8
			],
			"translation":[
				9.300000190734863,
				3.5,
				9.300000190734863
			]
		},
		{
			"mesh":6,
			"name":"cr4",
			"rotation":[
				0.7071068286895752,
				0,
				0.7071068286895752,
				3.090862321641907e-08
			],
			"scale":[
				12,
				12,
				12
			],
			"translation":[
				9.199999809265137,
				3.5,
				-9.199999809265137
			]
		},
		{
			"mesh":7,
			"name":"cr5",
			"rotation":[
				-0.7071068286895752,
				0,
				-0.7071068286895752,
				3.090862321641907e-08
			],
			"scale":[
				12,
				12,
				12
			],
			"translation":[
				0.800000011920929,
				3.5,
				-9.199999809265137
			]
		}
	],
	"materials":[
		{
			"doubleSided":true,
			"name":"Material_wall",
			"pbrMetallicRoughness":{
				"baseColorFactor":[
					0.800000011920929,
					0.800000011920929,
					0.800000011920929,
					1
				],
				"metallicFactor":0,
				"roughnessFactor":0.5
			}
		},
		{
			"doubleSided":true,
			"name":"Material_floor",
			"pbrMetallicRoughness":{
				"baseColorFactor":[
					0.800000011920929,
					0.800000011920929,
					0.800000011920929,
					1
				],
				"metallicFactor":0,
				"roughnessFactor":0.5
			}
		},
		{
			"doubleSided":true,
			"extensions":{
				"KHR_materials_specular":{
					"specularColorFactor":[
						1.600000023841858,
						1.600000023841858,
						1.600000023841858
					]
				},
				"KHR_materials_ior":{
					"ior":1.4500000476837158
				}
			},
			"name":"Material_ceiling",
			"pbrMetallicRoughness":{
				"baseColorFactor":[
					0.800000011920929,
					0.800000011920929,
					0.800000011920929,
					0.4000000059604645
				],
				"metallicFactor":0,
				"roughnessFactor":0.5
			}
		},
		{
			"doubleSided":true,
			"extensions":{
				"KHR_materials_specular":{
					"specularColorFactor":[
						2.0,
						2.0,
						2.0
					]
				},
				"KHR_materials_ior":{
					"ior":1.4500000476837158
				}
			},
			"name":"\u6750\u8d28.001",
			"pbrMetallicRoughness":{
				"baseColorFactor":[
					0.800000011920929,
					0.800000011920929,
					0.800000011920929,
					1
				],
				"roughnessFactor":0
			}
		},
		{
			"doubleSided":true,
			"extensions":{
				"KHR_materials_specular":{
					"specularColorFactor":[
						2.0,
						2.0,
						2.0
					]
				},
				"KHR_materials_ior":{
					"ior":1.4500000476837158
				}
			},
			"name":"\u6750\u8d28.002",
			"pbrMetallicRoughness":{
				"baseColorFactor":[
					0.800000011920929,
					0.800000011920929,
					0.800000011920929,
					1
				],
				"roughnessFactor":0
			}
		},
		{
			"doubleSided":true,
			"extensions":{
				"KHR_materials_specular":{
					"specularColorFactor":[
						2.0,
						2.0,
						2.0
					]
				},
				"KHR_materials_ior":{
					"ior":1.4500000476837158
				}
			},
			"name":"\u6750\u8d28",
			"pbrMetallicRoughness":{
				"baseColorFactor":[
					0.800000011920929,
					0.800000011920929,
					0.800000011920929,
					1
				],
				"roughnessFactor":0
			}
		}
	],
	"meshes":[
		{
			"name":"plane.006",
			"primitives":[
				{
					"attributes":{
						"POSITION":0,
						"NORMAL":1
					},
					"indices":2,
					"material":0
				}
			]
		},
		{
			"name":"plane.009",
			"primitives":[
				{
					"attributes":{
						"POSITION":3,
						"NORMAL":4
					},
					"indices":5,
					"material":1
				}
			]
		},
		{
			"name":"plane.010",
			"primitives":[
				{
					"attributes":{
						"POSITION":6,
						"NORMAL":7
					},
					"indices":8,
					"material":2
				}
			]
		},
		{
			"name":"cr",
			"primitives":[
				{
					"attributes":{
						"POSITION":9,
						"NORMAL":10
					},
					"indices":11,
					"material":3
				}
			]
		},
		{
			"name":"cr.001",
			"primitives":[
				{
					"attributes":{
						"POSITION":12,
						"NORMAL":13
					},
					"indices":11
				}
			]
		},
		{
			"name":"cr.002",
			"primitives":[
				{
					"attributes":{
						"POSITION":14,
						"NORMAL":15
					},
					"indices":11
				}
			]
		},
		{
			"name":"cr.003",
			"primitives":[
				{
					"attributes":{
						"POSITION":16,
						"NORMAL":17
					},
					"indices":11,
					"material":4
				}
			]
		},
		{
			"name":"cr.004",
			"primitives":[
				{
					"attributes":{
						"POSITION":18,
						"NORMAL":19
					},
					"indices":11,
					"material":5
				}
			]
		}
	],
	"accessors":[
		{
			"bufferView":0,
			"componentType":5126,
			"count":72,
			"max":[
				10,
				4,
				10
			],
			"min":[
				-10,
				0,
				-10
			],
			"type":"VEC3"
		},
		{
			"bufferView":1,
			"componentType":5126,
			"count":72,
			"type":"VEC3"
		},
		{
			"bufferView":2,
			"componentType":5123,
			"count":144,
			"type":"SCALAR"
		},
		{
			"bufferView":3,
			"componentType":5126,
			"count":36,
			"max":[
				10,
				0,
				10
			],
			"min":[
				-10,
				-0.5,
				-10
			],
			"type":"VEC3"
		},
		{
			"bufferView":4,
			"componentType":5126,
			"count":36,
			"type":"VEC3"
		},
		{
			"bufferView":5,
			"componentType":5123,
			"count":60,
			"type":"SCALAR"
		},
		{
			"bufferView":6,
			"componentType":5126,
			"count":36,
			"max":[
				10,
				0.5,
				10
			],
			"min":[
				-10,
				0,
				-10
			],
			"type":"VEC3"
		},
		{
			"bufferView":7,
			"componentType":5126,
			"count":36,
			"type":"VEC3"
		},
		{
			"bufferView":8,
			"componentType":5123,
			"count":60,
			"type":"SCALAR"
		},
		{
			"bufferView":9,
			"componentType":5126,
			"count":9,
			"max":[
				0.020433610305190086,
				0.02916048839688301,
				0.02500002458691597
			],
			"min":[
				-2.6240945771860424e-06,
				-0.014140769839286804,
				-0.02500002831220627
			],
			"type":"VEC3"
		},
		{
			"bufferView":10,
			"componentType":5126,
			"count":9,
			"type":"VEC3"
		},
		{
			"bufferView":11,
			"componentType":5123,
			"count":9,
			"type":"SCALAR"
		},
		{
			"bufferView":12,
			"componentType":5126,
			"count":9,
			"max":[
				0.020433610305190086,
				0.02916048839688301,
				0.02500002458691597
			],
			"min":[
				-2.6240945771860424e-06,
				-0.014140769839286804,
				-0.02500002831220627
			],
			"type":"VEC3"
		},
		{
			"bufferView":13,
			"componentType":5126,
			"count":9,
			"type":"VEC3"
		},
		{
			"bufferView":14,
			"componentType":5126,
			"count":9,
			"max":[
				0.020433610305190086,
				0.02916048839688301,
				0.02500002458691597
			],
			"min":[
				-2.6240945771860424e-06,
				-0.014140769839286804,
				-0.02500002831220627
			],
			"type":"VEC3"
		},
		{
			"bufferView":15,
			"componentType":5126,
			"count":9,
			"type":"VEC3"
		},
		{
			"bufferView":16,
			"componentType":5126,
			"count":9,
			"max":[
				0.020433610305190086,
				0.02916048839688301,
				0.02500002458691597
			],
			"min":[
				-2.6240945771860424e-06,
				-0.014140769839286804,
				-0.02500002831220627
			],
			"type":"VEC3"
		},
		{
			"bufferView":17,
			"componentType":5126,
			"count":9,
			"type":"VEC3"
		},
		{
			"bufferView":18,
			"componentType":5126,
			"count":9,
			"max":[
				0.020433610305190086,
				0.02916048839688301,
				0.02500002458691597
			],
			"min":[
				-2.6240945771860424e-06,
				-0.014140769839286804,
				-0.02500002831220627
			],
			"type":"VEC3"
		},
		{
			"bufferView":19,
			"componentType":5126,
			"count":9,
			"type":"VEC3"
		}
	],
	"bufferViews":[
		{
			"buffer":0,
			"byteLength":864,
			"byteOffset":0,
			"target":34962
		},
		{
			"buffer":0,
			"byteLength":864,
			"byteOffset":864,
			"target":34962
		},
		{
			"buffer":0,
			"byteLength":288,
			"byteOffset":1728,
			"target":34963
		},
		{
			"buffer":0,
			"byteLength":432,
			"byteOffset":2016,
			"target":34962
		},
		{
			"buffer":0,
			"byteLength":432,
			"byteOffset":2448,
			"target":34962
		},
		{
			"buffer":0,
			"byteLength":120,
			"byteOffset":2880,
			"target":34963
		},
		{
			"buffer":0,
			"byteLength":432,
			"byteOffset":3000,
			"target":34962
		},
		{
			"buffer":0,
			"byteLength":432,
			"byteOffset":3432,
			"target":34962
		},
		{
			"buffer":0,
			"byteLength":120,
			"byteOffset":3864,
			"target":34963
		},
		{
			"buffer":0,
			"byteLength":108,
			"byteOffset":3984,
			"target":34962
		},
		{
			"buffer":0,
			"byteLength":108,
			"byteOffset":4092,
			"target":34962
		},
		{
			"buffer":0,
			"byteLength":18,
			"byteOffset":4200,
			"target":34963
		},
		{
			"buffer":0,
			"byteLength":108,
			"byteOffset":4220,
			"target":34962
		},
		{
			"buffer":0,
			"byteLength":108,
			"byteOffset":4328,
			"target":34962
		},
		{
			"buffer":0,
			"byteLength":108,
			"byteOffset":4436,
			"target":34962
		},
		{
			"buffer":0,
			"byteLength":108,
			"byteOffset":4544,
			"target":34962
		},
		{
			"buffer":0,
			"byteLength":108,
			"byteOffset":4652,
			"target":34962
		},
		{
			"buffer":0,
			"byteLength":108,
			"byteOffset":4760,
			"target":34962
		},
		{
			"buffer":0,
			"byteLength":108,
			"byteOffset":4868,
			"target":34962
		},
		{
			"buffer":0,
			"byteLength":108,
			"byteOffset":4976,
			"target":34962
		}
	],
	"buffers":[
		{
			"byteLength":5084,
			"uri":"room_cr.bin"
		}
	]
}
