{
	"asset":{
		"generator":"Khronos glTF Blender I/O v4.0.44",
		"version":"2.0"
	},
	"scene":0,
	"scenes":[
		{
			"name":"Scene",
			"nodes":[
				0,
				1,
				2,
				3,
				4,
				5,
				6,
				7,
				8,
				9,
				10,
				11,
				12,
				13,
				14,
				15,
				16,
				17,
				18,
				19,
				20,
				21,
				22,
				23
			]
		}
	],
	"nodes":[
		{
			"mesh":0,
			"name":"floor"
		},
		{
			"mesh":1,
			"name":"cr1",
			"scale":[
				10,
				10,
				10
			],
			"translation":[
				7.300000190734863,
				3.5,
				9
			]
		},
		{
			"mesh":2,
			"name":"cr2",
			"scale":[
				10,
				10,
				10
			],
			"translation":[
				9,
				3.5,
				8
			]
		},
		{
			"mesh":3,
			"name":"cr3",
			"scale":[
				10,
				10,
				10
			],
			"translation":[
				5.800000190734863,
				3.5,
				-3.799999952316284
			]
		},
		{
			"mesh":4,
			"name":"cr4",
			"scale":[
				10,
				10,
				10
			],
			"translation":[
				5,
				3.5,
				-4.699999809265137
			]
		},
		{
			"mesh":5,
			"name":"cr5",
			"scale":[
				10,
				10,
				10
			],
			"translation":[
				-2.200000047683716,
				3.5,
				5
			]
		},
		{
			"mesh":6,
			"name":"cr6",
			"scale":[
				10,
				10,
				10
			],
			"translation":[
				-2.5,
				3.5,
				6.300000190734863
			]
		},
		{
			"mesh":7,
			"name":"cr7",
			"scale":[
				10,
				10,
				10
			],
			"translation":[
				-5.5,
				3.5,
				7.599999904632568
			]
		},
		{
			"mesh":8,
			"name":"cr8",
			"scale":[
				10,
				10,
				10
			],
			"translation":[
				4.599999904632568,
				3.5,
				-7.800000190734863
			]
		},
		{
			"mesh":9,
			"name":"cr9",
			"scale":[
				10,
				10,
				10
			],
			"translation":[
				3.5,
				3.5,
				-3.700000047683716
			]
		},
		{
			"mesh":10,
			"name":"cr10",
			"scale":[
				10,
				10,
				10
			],
			"translation":[
				2.799999952316284,
				3.5,
				-8.600000381469727
			]
		},
		{
			"mesh":11,
			"name":"cr11",
			"scale":[
				10,
				10,
				10
			],
			"translation":[
				7.800000190734863,
				3.5,
				-3.799999952316284
			]
		},
		{
			"mesh":12,
			"name":"cr12",
			"scale":[
				10,
				10,
				10
			],
			"translation":[
				-5.099999904632568,
				3.5,
				4.599999904632568
			]
		},
		{
			"mesh":13,
			"name":"cr13",
			"scale":[
				10,
				10,
				10
			],
			"translation":[
				-7.300000190734863,
				3.5,
				6.400000095367432
			]
		},
		{
			"mesh":14,
			"name":"cr14",
			"scale":[
				10,
				10,
				10
			],
			"translation":[
				3.299999952316284,
				3.5,
				-9.300000190734863
			]
		},
		{
			"mesh":15,
			"name":"cr15",
			"scale":[
				10,
				10,
				10
			],
			"translation":[
				9.199999809265137,
				3.5,
				9.5
			]
		},
		{
			"mesh":16,
			"name":"cr16",
			"scale":[
				10,
				10,
				10
			],
			"translation":[
				4.800000190734863,
				3.5,
				-0.4000000059604645
			]
		},
		{
			"mesh":17,
			"name":"cr17",
			"scale":[
				10,
				10,
				10
			],
			"translation":[
				-4,
				3.5,
				1.2000000476837158
			]
		},
		{
			"mesh":18,
			"name":"cr18",
			"scale":[
				10,
				10,
				10
			],
			"translation":[
				-5.400000095367432,
				3.5,
				6
			]
		},
		{
			"mesh":19,
			"name":"cr19",
			"scale":[
				10,
				10,
				10
			],
			"translation":[
				-2.9000000953674316,
				3.5,
				3.200000047683716
			]
		},
		{
			"mesh":20,
			"name":"cr20",
			"scale":[
				10,
				10,
				10
			],
			"translation":[
				3.700000047683716,
				3.5,
				2.700000047683716
			]
		},
		{
			"mesh":21,
			"name":"Cube.001",
			"scale":[
				1,
				0.3799999952316284,
				1
			],
			"translation":[
				-4.75,
				2,
				-4.75
			]
		},
		{
			"mesh":22,
			"name":"\u7acb\u65b9\u4f53.002",
			"scale":[
				1,
				0.4000000059604645,
				1
			],
			"translation":[
				5,
				2,
				-14.5
			]
		},
		{
			"mesh":23,
			"name":"\u7acb\u65b9\u4f53.004",
			"scale":[
				1,
				0.4000000059604645,
				1
			],
			"translation":[
				-14.5,
				2,
				5
			]
		}
	],
	"materials":[
		{
			"doubleSided":true,
			"name":"\u6750\u8d28.002",
			"pbrMetallicRoughness":{
				"baseColorFactor":[
					0.800000011920929,
					0.800000011920929,
					0.800000011920929,
					1
				],
				"metallicFactor":0,
				"roughnessFactor":0.5
			}
		}
	],
	"meshes":[
		{
			"name":"\u5e73\u9762.009",
			"primitives":[
				{
					"attributes":{
						"POSITION":0,
						"NORMAL":1
					},
					"indices":2,
					"material":0
				}
			]
		},
		{
			"name":"cr3",
			"primitives":[
				{
					"attributes":{
						"POSITION":3,
						"NORMAL":4
					},
					"indices":5
				}
			]
		},
		{
			"name":"cr3.001",
			"primitives":[
				{
					"attributes":{
						"POSITION":6,
						"NORMAL":7
					},
					"indices":5
				}
			]
		},
		{
			"name":"cr3.002",
			"primitives":[
				{
					"attributes":{
						"POSITION":8,
						"NORMAL":9
					},
					"indices":5
				}
			]
		},
		{
			"name":"cr3.003",
			"primitives":[
				{
					"attributes":{
						"POSITION":10,
						"NORMAL":11
					},
					"indices":5
				}
			]
		},
		{
			"name":"cr3.004",
			"primitives":[
				{
					"attributes":{
						"POSITION":12,
						"NORMAL":13
					},
					"indices":5
				}
			]
		},
		{
			"name":"cr3.005",
			"primitives":[
				{
					"attributes":{
						"POSITION":14,
						"NORMAL":15
					},
					"indices":5
				}
			]
		},
		{
			"name":"cr3.006",
			"primitives":[
				{
					"attributes":{
						"POSITION":16,
						"NORMAL":17
					},
					"indices":5
				}
			]
		},
		{
			"name":"cr3.007",
			"primitives":[
				{
					"attributes":{
						"POSITION":18,
						"NORMAL":19
					},
					"indices":5
				}
			]
		},
		{
			"name":"cr3.008",
			"primitives":[
				{
					"attributes":{
						"POSITION":20,
						"NORMAL":21
					},
					"indices":5
				}
			]
		},
		{
			"name":"cr3.009",
			"primitives":[
				{
					"attributes":{
						"POSITION":22,
						"NORMAL":23
					},
					"indices":5
				}
			]
		},
		{
			"name":"cr3.010",
			"primitives":[
				{
					"attributes":{
						"POSITION":24,
						"NORMAL":25
					},
					"indices":5
				}
			]
		},
		{
			"name":"cr3.011",
			"primitives":[
				{
					"attributes":{
						"POSITION":26,
						"NORMAL":27
					},
					"indices":5
				}
			]
		},
		{
			"name":"cr3.012",
			"primitives":[
				{
					"attributes":{
						"POSITION":28,
						"NORMAL":29
					},
					"indices":5
				}
			]
		},
		{
			"name":"cr3.013",
			"primitives":[
				{
					"attributes":{
						"POSITION":30,
						"NORMAL":31
					},
					"indices":5
				}
			]
		},
		{
			"name":"cr3.014",
			"primitives":[
				{
					"attributes":{
						"POSITION":32,
						"NORMAL":33
					},
					"indices":5
				}
			]
		},
		{
			"name":"cr3.015",
			"primitives":[
				{
					"attributes":{
						"POSITION":34,
						"NORMAL":35
					},
					"indices":5
				}
			]
		},
		{
			"name":"cr3.016",
			"primitives":[
				{
					"attributes":{
						"POSITION":36,
						"NORMAL":37
					},
					"indices":5
				}
			]
		},
		{
			"name":"cr3.017",
			"primitives":[
				{
					"attributes":{
						"POSITION":38,
						"NORMAL":39
					},
					"indices":5
				}
			]
		},
		{
			"name":"cr3.018",
			"primitives":[
				{
					"attributes":{
						"POSITION":40,
						"NORMAL":41
					},
					"indices":5
				}
			]
		},
		{
			"name":"cr3.019",
			"primitives":[
				{
					"attributes":{
						"POSITION":42,
						"NORMAL":43
					},
					"indices":5
				}
			]
		},
		{
			"name":"Cube.002",
			"primitives":[
				{
					"attributes":{
						"POSITION":44,
						"NORMAL":45,
						"TEXCOORD_0":46,
						"TEXCOORD_1":47
					},
					"indices":48
				}
			]
		},
		{
			"name":"\u7acb\u65b9\u4f53.002",
			"primitives":[
				{
					"attributes":{
						"POSITION":49,
						"NORMAL":50,
						"TEXCOORD_0":51
					},
					"indices":52
				}
			]
		},
		{
			"name":"\u7acb\u65b9\u4f53.005",
			"primitives":[
				{
					"attributes":{
						"POSITION":53,
						"NORMAL":54,
						"TEXCOORD_0":55
					},
					"indices":56
				}
			]
		}
	],
	"accessors":[
		{
			"bufferView":0,
			"componentType":5126,
			"count":36,
			"max":[
				10,
				0,
				10
			],
			"min":[
				-10,
				-0.5,
				-10
			],
			"type":"VEC3"
		},
		{
			"bufferView":1,
			"componentType":5126,
			"count":36,
			"type":"VEC3"
		},
		{
			"bufferView":2,
			"componentType":5123,
			"count":60,
			"type":"SCALAR"
		},
		{
			"bufferView":3,
			"componentType":5126,
			"count":378,
			"max":[
				0.029999999329447746,
				0.029999999329447746,
				0.029999999329447746
			],
			"min":[
				-0.029999999329447746,
				-0.029999999329447746,
				-0.029999999329447746
			],
			"type":"VEC3"
		},
		{
			"bufferView":4,
			"componentType":5126,
			"count":378,
			"type":"VEC3"
		},
		{
			"bufferView":5,
			"componentType":5123,
			"count":504,
			"type":"SCALAR"
		},
		{
			"bufferView":6,
			"componentType":5126,
			"count":378,
			"max":[
				0.029999999329447746,
				0.029999999329447746,
				0.029999999329447746
			],
			"min":[
				-0.029999999329447746,
				-0.029999999329447746,
				-0.029999999329447746
			],
			"type":"VEC3"
		},
		{
			"bufferView":7,
			"componentType":5126,
			"count":378,
			"type":"VEC3"
		},
		{
			"bufferView":8,
			"componentType":5126,
			"count":378,
			"max":[
				0.029999999329447746,
				0.029999999329447746,
				0.029999999329447746
			],
			"min":[
				-0.029999999329447746,
				-0.029999999329447746,
				-0.029999999329447746
			],
			"type":"VEC3"
		},
		{
			"bufferView":9,
			"componentType":5126,
			"count":378,
			"type":"VEC3"
		},
		{
			"bufferView":10,
			"componentType":5126,
			"count":378,
			"max":[
				0.029999999329447746,
				0.029999999329447746,
				0.029999999329447746
			],
			"min":[
				-0.029999999329447746,
				-0.029999999329447746,
				-0.029999999329447746
			],
			"type":"VEC3"
		},
		{
			"bufferView":11,
			"componentType":5126,
			"count":378,
			"type":"VEC3"
		},
		{
			"bufferView":12,
			"componentType":5126,
			"count":378,
			"max":[
				0.029999999329447746,
				0.029999999329447746,
				0.029999999329447746
			],
			"min":[
				-0.029999999329447746,
				-0.029999999329447746,
				-0.029999999329447746
			],
			"type":"VEC3"
		},
		{
			"bufferView":13,
			"componentType":5126,
			"count":378,
			"type":"VEC3"
		},
		{
			"bufferView":14,
			"componentType":5126,
			"count":378,
			"max":[
				0.029999999329447746,
				0.029999999329447746,
				0.029999999329447746
			],
			"min":[
				-0.029999999329447746,
				-0.029999999329447746,
				-0.029999999329447746
			],
			"type":"VEC3"
		},
		{
			"bufferView":15,
			"componentType":5126,
			"count":378,
			"type":"VEC3"
		},
		{
			"bufferView":16,
			"componentType":5126,
			"count":378,
			"max":[
				0.029999999329447746,
				0.029999999329447746,
				0.029999999329447746
			],
			"min":[
				-0.029999999329447746,
				-0.029999999329447746,
				-0.029999999329447746
			],
			"type":"VEC3"
		},
		{
			"bufferView":17,
			"componentType":5126,
			"count":378,
			"type":"VEC3"
		},
		{
			"bufferView":18,
			"componentType":5126,
			"count":378,
			"max":[
				0.029999999329447746,
				0.029999999329447746,
				0.029999999329447746
			],
			"min":[
				-0.029999999329447746,
				-0.029999999329447746,
				-0.029999999329447746
			],
			"type":"VEC3"
		},
		{
			"bufferView":19,
			"componentType":5126,
			"count":378,
			"type":"VEC3"
		},
		{
			"bufferView":20,
			"componentType":5126,
			"count":378,
			"max":[
				0.029999999329447746,
				0.029999999329447746,
				0.029999999329447746
			],
			"min":[
				-0.029999999329447746,
				-0.029999999329447746,
				-0.029999999329447746
			],
			"type":"VEC3"
		},
		{
			"bufferView":21,
			"componentType":5126,
			"count":378,
			"type":"VEC3"
		},
		{
			"bufferView":22,
			"componentType":5126,
			"count":378,
			"max":[
				0.029999999329447746,
				0.029999999329447746,
				0.029999999329447746
			],
			"min":[
				-0.029999999329447746,
				-0.029999999329447746,
				-0.029999999329447746
			],
			"type":"VEC3"
		},
		{
			"bufferView":23,
			"componentType":5126,
			"count":378,
			"type":"VEC3"
		},
		{
			"bufferView":24,
			"componentType":5126,
			"count":378,
			"max":[
				0.029999999329447746,
				0.029999999329447746,
				0.029999999329447746
			],
			"min":[
				-0.029999999329447746,
				-0.029999999329447746,
				-0.029999999329447746
			],
			"type":"VEC3"
		},
		{
			"bufferView":25,
			"componentType":5126,
			"count":378,
			"type":"VEC3"
		},
		{
			"bufferView":26,
			"componentType":5126,
			"count":378,
			"max":[
				0.029999999329447746,
				0.029999999329447746,
				0.029999999329447746
			],
			"min":[
				-0.029999999329447746,
				-0.029999999329447746,
				-0.029999999329447746
			],
			"type":"VEC3"
		},
		{
			"bufferView":27,
			"componentType":5126,
			"count":378,
			"type":"VEC3"
		},
		{
			"bufferView":28,
			"componentType":5126,
			"count":378,
			"max":[
				0.029999999329447746,
				0.029999999329447746,
				0.029999999329447746
			],
			"min":[
				-0.029999999329447746,
				-0.029999999329447746,
				-0.029999999329447746
			],
			"type":"VEC3"
		},
		{
			"bufferView":29,
			"componentType":5126,
			"count":378,
			"type":"VEC3"
		},
		{
			"bufferView":30,
			"componentType":5126,
			"count":378,
			"max":[
				0.029999999329447746,
				0.029999999329447746,
				0.029999999329447746
			],
			"min":[
				-0.029999999329447746,
				-0.029999999329447746,
				-0.029999999329447746
			],
			"type":"VEC3"
		},
		{
			"bufferView":31,
			"componentType":5126,
			"count":378,
			"type":"VEC3"
		},
		{
			"bufferView":32,
			"componentType":5126,
			"count":378,
			"max":[
				0.029999999329447746,
				0.029999999329447746,
				0.029999999329447746
			],
			"min":[
				-0.029999999329447746,
				-0.029999999329447746,
				-0.029999999329447746
			],
			"type":"VEC3"
		},
		{
			"bufferView":33,
			"componentType":5126,
			"count":378,
			"type":"VEC3"
		},
		{
			"bufferView":34,
			"componentType":5126,
			"count":378,
			"max":[
				0.029999999329447746,
				0.029999999329447746,
				0.029999999329447746
			],
			"min":[
				-0.029999999329447746,
				-0.029999999329447746,
				-0.029999999329447746
			],
			"type":"VEC3"
		},
		{
			"bufferView":35,
			"componentType":5126,
			"count":378,
			"type":"VEC3"
		},
		{
			"bufferView":36,
			"componentType":5126,
			"count":378,
			"max":[
				0.029999999329447746,
				0.029999999329447746,
				0.029999999329447746
			],
			"min":[
				-0.029999999329447746,
				-0.029999999329447746,
				-0.029999999329447746
			],
			"type":"VEC3"
		},
		{
			"bufferView":37,
			"componentType":5126,
			"count":378,
			"type":"VEC3"
		},
		{
			"bufferView":38,
			"componentType":5126,
			"count":378,
			"max":[
				0.029999999329447746,
				0.029999999329447746,
				0.029999999329447746
			],
			"min":[
				-0.029999999329447746,
				-0.029999999329447746,
				-0.029999999329447746
			],
			"type":"VEC3"
		},
		{
			"bufferView":39,
			"componentType":5126,
			"count":378,
			"type":"VEC3"
		},
		{
			"bufferView":40,
			"componentType":5126,
			"count":378,
			"max":[
				0.029999999329447746,
				0.029999999329447746,
				0.029999999329447746
			],
			"min":[
				-0.029999999329447746,
				-0.029999999329447746,
				-0.029999999329447746
			],
			"type":"VEC3"
		},
		{
			"bufferView":41,
			"componentType":5126,
			"count":378,
			"type":"VEC3"
		},
		{
			"bufferView":42,
			"componentType":5126,
			"count":378,
			"max":[
				0.029999999329447746,
				0.029999999329447746,
				0.029999999329447746
			],
			"min":[
				-0.029999999329447746,
				-0.029999999329447746,
				-0.029999999329447746
			],
			"type":"VEC3"
		},
		{
			"bufferView":43,
			"componentType":5126,
			"count":378,
			"type":"VEC3"
		},
		{
			"bufferView":44,
			"componentType":5126,
			"count":36,
			"max":[
				5.25,
				5.25,
				5.25
			],
			"min":[
				-5.25,
				-5.25,
				-5.25
			],
			"type":"VEC3"
		},
		{
			"bufferView":45,
			"componentType":5126,
			"count":36,
			"type":"VEC3"
		},
		{
			"bufferView":46,
			"componentType":5126,
			"count":36,
			"type":"VEC2"
		},
		{
			"bufferView":47,
			"componentType":5126,
			"count":36,
			"type":"VEC2"
		},
		{
			"bufferView":48,
			"componentType":5123,
			"count":60,
			"type":"SCALAR"
		},
		{
			"bufferView":49,
			"componentType":5126,
			"count":24,
			"max":[
				5,
				5,
				5
			],
			"min":[
				-5,
				-5,
				4.5
			],
			"type":"VEC3"
		},
		{
			"bufferView":50,
			"componentType":5126,
			"count":24,
			"type":"VEC3"
		},
		{
			"bufferView":51,
			"componentType":5126,
			"count":24,
			"type":"VEC2"
		},
		{
			"bufferView":52,
			"componentType":5123,
			"count":36,
			"type":"SCALAR"
		},
		{
			"bufferView":53,
			"componentType":5126,
			"count":24,
			"max":[
				5,
				5,
				5
			],
			"min":[
				4.5,
				-5,
				-5
			],
			"type":"VEC3"
		},
		{
			"bufferView":54,
			"componentType":5126,
			"count":24,
			"type":"VEC3"
		},
		{
			"bufferView":55,
			"componentType":5126,
			"count":24,
			"type":"VEC2"
		},
		{
			"bufferView":56,
			"componentType":5123,
			"count":36,
			"type":"SCALAR"
		}
	],
	"bufferViews":[
		{
			"buffer":0,
			"byteLength":432,
			"byteOffset":0,
			"target":34962
		},
		{
			"buffer":0,
			"byteLength":432,
			"byteOffset":432,
			"target":34962
		},
		{
			"buffer":0,
			"byteLength":120,
			"byteOffset":864,
			"target":34963
		},
		{
			"buffer":0,
			"byteLength":4536,
			"byteOffset":984,
			"target":34962
		},
		{
			"buffer":0,
			"byteLength":4536,
			"byteOffset":5520,
			"target":34962
		},
		{
			"buffer":0,
			"byteLength":1008,
			"byteOffset":10056,
			"target":34963
		},
		{
			"buffer":0,
			"byteLength":4536,
			"byteOffset":11064,
			"target":34962
		},
		{
			"buffer":0,
			"byteLength":4536,
			"byteOffset":15600,
			"target":34962
		},
		{
			"buffer":0,
			"byteLength":4536,
			"byteOffset":20136,
			"target":34962
		},
		{
			"buffer":0,
			"byteLength":4536,
			"byteOffset":24672,
			"target":34962
		},
		{
			"buffer":0,
			"byteLength":4536,
			"byteOffset":29208,
			"target":34962
		},
		{
			"buffer":0,
			"byteLength":4536,
			"byteOffset":33744,
			"target":34962
		},
		{
			"buffer":0,
			"byteLength":4536,
			"byteOffset":38280,
			"target":34962
		},
		{
			"buffer":0,
			"byteLength":4536,
			"byteOffset":42816,
			"target":34962
		},
		{
			"buffer":0,
			"byteLength":4536,
			"byteOffset":47352,
			"target":34962
		},
		{
			"buffer":0,
			"byteLength":4536,
			"byteOffset":51888,
			"target":34962
		},
		{
			"buffer":0,
			"byteLength":4536,
			"byteOffset":56424,
			"target":34962
		},
		{
			"buffer":0,
			"byteLength":4536,
			"byteOffset":60960,
			"target":34962
		},
		{
			"buffer":0,
			"byteLength":4536,
			"byteOffset":65496,
			"target":34962
		},
		{
			"buffer":0,
			"byteLength":4536,
			"byteOffset":70032,
			"target":34962
		},
		{
			"buffer":0,
			"byteLength":4536,
			"byteOffset":74568,
			"target":34962
		},
		{
			"buffer":0,
			"byteLength":4536,
			"byteOffset":79104,
			"target":34962
		},
		{
			"buffer":0,
			"byteLength":4536,
			"byteOffset":83640,
			"target":34962
		},
		{
			"buffer":0,
			"byteLength":4536,
			"byteOffset":88176,
			"target":34962
		},
		{
			"buffer":0,
			"byteLength":4536,
			"byteOffset":92712,
			"target":34962
		},
		{
			"buffer":0,
			"byteLength":4536,
			"byteOffset":97248,
			"target":34962
		},
		{
			"buffer":0,
			"byteLength":4536,
			"byteOffset":101784,
			"target":34962
		},
		{
			"buffer":0,
			"byteLength":4536,
			"byteOffset":106320,
			"target":34962
		},
		{
			"buffer":0,
			"byteLength":4536,
			"byteOffset":110856,
			"target":34962
		},
		{
			"buffer":0,
			"byteLength":4536,
			"byteOffset":115392,
			"target":34962
		},
		{
			"buffer":0,
			"byteLength":4536,
			"byteOffset":119928,
			"target":34962
		},
		{
			"buffer":0,
			"byteLength":4536,
			"byteOffset":124464,
			"target":34962
		},
		{
			"buffer":0,
			"byteLength":4536,
			"byteOffset":129000,
			"target":34962
		},
		{
			"buffer":0,
			"byteLength":4536,
			"byteOffset":133536,
			"target":34962
		},
		{
			"buffer":0,
			"byteLength":4536,
			"byteOffset":138072,
			"target":34962
		},
		{
			"buffer":0,
			"byteLength":4536,
			"byteOffset":142608,
			"target":34962
		},
		{
			"buffer":0,
			"byteLength":4536,
			"byteOffset":147144,
			"target":34962
		},
		{
			"buffer":0,
			"byteLength":4536,
			"byteOffset":151680,
			"target":34962
		},
		{
			"buffer":0,
			"byteLength":4536,
			"byteOffset":156216,
			"target":34962
		},
		{
			"buffer":0,
			"byteLength":4536,
			"byteOffset":160752,
			"target":34962
		},
		{
			"buffer":0,
			"byteLength":4536,
			"byteOffset":165288,
			"target":34962
		},
		{
			"buffer":0,
			"byteLength":4536,
			"byteOffset":169824,
			"target":34962
		},
		{
			"buffer":0,
			"byteLength":4536,
			"byteOffset":174360,
			"target":34962
		},
		{
			"buffer":0,
			"byteLength":4536,
			"byteOffset":178896,
			"target":34962
		},
		{
			"buffer":0,
			"byteLength":432,
			"byteOffset":183432,
			"target":34962
		},
		{
			"buffer":0,
			"byteLength":432,
			"byteOffset":183864,
			"target":34962
		},
		{
			"buffer":0,
			"byteLength":288,
			"byteOffset":184296,
			"target":34962
		},
		{
			"buffer":0,
			"byteLength":288,
			"byteOffset":184584,
			"target":34962
		},
		{
			"buffer":0,
			"byteLength":120,
			"byteOffset":184872,
			"target":34963
		},
		{
			"buffer":0,
			"byteLength":288,
			"byteOffset":184992,
			"target":34962
		},
		{
			"buffer":0,
			"byteLength":288,
			"byteOffset":185280,
			"target":34962
		},
		{
			"buffer":0,
			"byteLength":192,
			"byteOffset":185568,
			"target":34962
		},
		{
			"buffer":0,
			"byteLength":72,
			"byteOffset":185760,
			"target":34963
		},
		{
			"buffer":0,
			"byteLength":288,
			"byteOffset":185832,
			"target":34962
		},
		{
			"buffer":0,
			"byteLength":288,
			"byteOffset":186120,
			"target":34962
		},
		{
			"buffer":0,
			"byteLength":192,
			"byteOffset":186408,
			"target":34962
		},
		{
			"buffer":0,
			"byteLength":72,
			"byteOffset":186600,
			"target":34963
		}
	],
	"buffers":[
		{
			"byteLength":186672,
			"uri":"room_pre.bin"
		}
	]
}
