{
	"asset":{
		"generator":"Khronos glTF Blender I/O v4.0.44",
		"version":"2.0"
	},
	"extensionsUsed":[
		"KHR_materials_specular",
		"KHR_materials_ior"
	],
	"scene":0,
	"scenes":[
		{
			"name":"Scene",
			"nodes":[
				0,
				1,
				2,
				3,
				4,
				5,
				6,
				7
			]
		}
	],
	"nodes":[
		{
			"mesh":0,
			"name":"wall"
		},
		{
			"mesh":1,
			"name":"floor"
		},
		{
			"mesh":2,
			"name":"ceiling",
			"translation":[
				0,
				4,
				0
			]
		},
		{
			"mesh":3,
			"name":"reflector1",
			"rotation":[
				0.5000001192092896,
				-0.5000001192092896,
				-0.49999988079071045,
				0.4999999403953552
			],
			"translation":[
				-9.300000190734863,
				3.5,
				0.699999988079071
			]
		},
		{
			"mesh":4,
			"name":"reflector2",
			"rotation":[
				-0.7071068286895752,
				0,
				0,
				0.7071068286895752
			],
			"translation":[
				-9.300000190734863,
				3.5,
				9.300000190734863
			]
		},
		{
			"mesh":5,
			"name":"reflector3",
			"rotation":[
				0,
				0,
				-1,
				1.7478846739112444e-14
			],
			"translation":[
				9.300000190734863,
				3.5,
				9.300000190734863
			]
		},
		{
			"mesh":6,
			"name":"reflector4",
			"rotation":[
				-0.7071069478988647,
				0.7071065902709961,
				0,
				7.586157124706006e-08
			],
			"translation":[
				9.300000190734863,
				3.5,
				-9.300000190734863
			]
		},
		{
			"mesh":7,
			"name":"reflector5",
			"rotation":[
				-1,
				0,
				0,
				1.7478846739112444e-14
			],
			"translation":[
				0.699999988079071,
				3.5,
				-9.300000190734863
			]
		}
	],
	"materials":[
		{
			"doubleSided":true,
			"name":"Material_wall",
			"pbrMetallicRoughness":{
				"baseColorFactor":[
					0.800000011920929,
					0.800000011920929,
					0.800000011920929,
					1
				],
				"metallicFactor":0,
				"roughnessFactor":0.5
			}
		},
		{
			"doubleSided":true,
			"name":"Material_floor",
			"pbrMetallicRoughness":{
				"baseColorFactor":[
					0.800000011920929,
					0.800000011920929,
					0.800000011920929,
					1
				],
				"metallicFactor":0,
				"roughnessFactor":0.5
			}
		},
		{
			"doubleSided":true,
			"extensions":{
				"KHR_materials_specular":{
					"specularColorFactor":[
						1.600000023841858,
						1.600000023841858,
						1.600000023841858
					]
				},
				"KHR_materials_ior":{
					"ior":1.4500000476837158
				}
			},
			"name":"Material_ceiling",
			"pbrMetallicRoughness":{
				"baseColorFactor":[
					0.800000011920929,
					0.800000011920929,
					0.800000011920929,
					0.4000000059604645
				],
				"metallicFactor":0,
				"roughnessFactor":0.5
			}
		},
		{
			"doubleSided":true,
			"name":"Material_reflector1",
			"pbrMetallicRoughness":{
				"baseColorFactor":[
					0.800000011920929,
					0.800000011920929,
					0.800000011920929,
					1
				],
				"roughnessFactor":0
			}
		},
		{
			"doubleSided":true,
			"name":"Material_reflector2",
			"pbrMetallicRoughness":{
				"baseColorFactor":[
					0.800000011920929,
					0.800000011920929,
					0.800000011920929,
					1
				],
				"roughnessFactor":0
			}
		},
		{
			"doubleSided":true,
			"name":"Material_reflector3",
			"pbrMetallicRoughness":{
				"baseColorFactor":[
					0.800000011920929,
					0.800000011920929,
					0.800000011920929,
					1
				],
				"roughnessFactor":0
			}
		},
		{
			"doubleSided":true,
			"name":"Material_reflector4",
			"pbrMetallicRoughness":{
				"baseColorFactor":[
					0.800000011920929,
					0.800000011920929,
					0.800000011920929,
					1
				],
				"roughnessFactor":0
			}
		},
		{
			"doubleSided":true,
			"name":"Material_reflector5",
			"pbrMetallicRoughness":{
				"baseColorFactor":[
					0.800000011920929,
					0.800000011920929,
					0.800000011920929,
					1
				],
				"roughnessFactor":0
			}
		}
	],
	"meshes":[
		{
			"name":"plane.006",
			"primitives":[
				{
					"attributes":{
						"POSITION":0,
						"NORMAL":1
					},
					"indices":2,
					"material":0
				}
			]
		},
		{
			"name":"plane.009",
			"primitives":[
				{
					"attributes":{
						"POSITION":3,
						"NORMAL":4
					},
					"indices":5,
					"material":1
				}
			]
		},
		{
			"name":"plane.010",
			"primitives":[
				{
					"attributes":{
						"POSITION":6,
						"NORMAL":7
					},
					"indices":8,
					"material":2
				}
			]
		},
		{
			"name":"cube.003",
			"primitives":[
				{
					"attributes":{
						"POSITION":9,
						"NORMAL":10,
						"TEXCOORD_0":11
					},
					"indices":12,
					"material":3
				}
			]
		},
		{
			"name":"cube.009",
			"primitives":[
				{
					"attributes":{
						"POSITION":13,
						"NORMAL":14,
						"TEXCOORD_0":15
					},
					"indices":12,
					"material":4
				}
			]
		},
		{
			"name":"cube.010",
			"primitives":[
				{
					"attributes":{
						"POSITION":16,
						"NORMAL":17,
						"TEXCOORD_0":18
					},
					"indices":12,
					"material":5
				}
			]
		},
		{
			"name":"cube.011",
			"primitives":[
				{
					"attributes":{
						"POSITION":19,
						"NORMAL":20,
						"TEXCOORD_0":21
					},
					"indices":12,
					"material":6
				}
			]
		},
		{
			"name":"cube.012",
			"primitives":[
				{
					"attributes":{
						"POSITION":22,
						"NORMAL":23,
						"TEXCOORD_0":24
					},
					"indices":12,
					"material":7
				}
			]
		}
	],
	"accessors":[
		{
			"bufferView":0,
			"componentType":5126,
			"count":72,
			"max":[
				10,
				4,
				10
			],
			"min":[
				-10,
				0,
				-10
			],
			"type":"VEC3"
		},
		{
			"bufferView":1,
			"componentType":5126,
			"count":72,
			"type":"VEC3"
		},
		{
			"bufferView":2,
			"componentType":5123,
			"count":144,
			"type":"SCALAR"
		},
		{
			"bufferView":3,
			"componentType":5126,
			"count":36,
			"max":[
				10,
				0,
				10
			],
			"min":[
				-10,
				-0.5,
				-10
			],
			"type":"VEC3"
		},
		{
			"bufferView":4,
			"componentType":5126,
			"count":36,
			"type":"VEC3"
		},
		{
			"bufferView":5,
			"componentType":5123,
			"count":60,
			"type":"SCALAR"
		},
		{
			"bufferView":6,
			"componentType":5126,
			"count":36,
			"max":[
				10,
				0.5,
				10
			],
			"min":[
				-10,
				0,
				-10
			],
			"type":"VEC3"
		},
		{
			"bufferView":7,
			"componentType":5126,
			"count":36,
			"type":"VEC3"
		},
		{
			"bufferView":8,
			"componentType":5123,
			"count":60,
			"type":"SCALAR"
		},
		{
			"bufferView":9,
			"componentType":5126,
			"count":78,
			"max":[
				0.10000000149011612,
				0.10000000149011612,
				0.10000000149011612
			],
			"min":[
				-0.10000000149011612,
				-0.10000000149011612,
				-0.10000000149011612
			],
			"type":"VEC3"
		},
		{
			"bufferView":10,
			"componentType":5126,
			"count":78,
			"type":"VEC3"
		},
		{
			"bufferView":11,
			"componentType":5126,
			"count":78,
			"type":"VEC2"
		},
		{
			"bufferView":12,
			"componentType":5123,
			"count":144,
			"type":"SCALAR"
		},
		{
			"bufferView":13,
			"componentType":5126,
			"count":78,
			"max":[
				0.10000000149011612,
				0.10000000149011612,
				0.10000000149011612
			],
			"min":[
				-0.10000000149011612,
				-0.10000000149011612,
				-0.10000000149011612
			],
			"type":"VEC3"
		},
		{
			"bufferView":14,
			"componentType":5126,
			"count":78,
			"type":"VEC3"
		},
		{
			"bufferView":15,
			"componentType":5126,
			"count":78,
			"type":"VEC2"
		},
		{
			"bufferView":16,
			"componentType":5126,
			"count":78,
			"max":[
				0.10000000149011612,
				0.10000000149011612,
				0.10000000149011612
			],
			"min":[
				-0.10000000149011612,
				-0.10000000149011612,
				-0.10000000149011612
			],
			"type":"VEC3"
		},
		{
			"bufferView":17,
			"componentType":5126,
			"count":78,
			"type":"VEC3"
		},
		{
			"bufferView":18,
			"componentType":5126,
			"count":78,
			"type":"VEC2"
		},
		{
			"bufferView":19,
			"componentType":5126,
			"count":78,
			"max":[
				0.10000000149011612,
				0.10000000149011612,
				0.10000000149011612
			],
			"min":[
				-0.10000000149011612,
				-0.10000000149011612,
				-0.10000000149011612
			],
			"type":"VEC3"
		},
		{
			"bufferView":20,
			"componentType":5126,
			"count":78,
			"type":"VEC3"
		},
		{
			"bufferView":21,
			"componentType":5126,
			"count":78,
			"type":"VEC2"
		},
		{
			"bufferView":22,
			"componentType":5126,
			"count":78,
			"max":[
				0.10000000149011612,
				0.10000000149011612,
				0.10000000149011612
			],
			"min":[
				-0.10000000149011612,
				-0.10000000149011612,
				-0.10000000149011612
			],
			"type":"VEC3"
		},
		{
			"bufferView":23,
			"componentType":5126,
			"count":78,
			"type":"VEC3"
		},
		{
			"bufferView":24,
			"componentType":5126,
			"count":78,
			"type":"VEC2"
		}
	],
	"bufferViews":[
		{
			"buffer":0,
			"byteLength":864,
			"byteOffset":0,
			"target":34962
		},
		{
			"buffer":0,
			"byteLength":864,
			"byteOffset":864,
			"target":34962
		},
		{
			"buffer":0,
			"byteLength":288,
			"byteOffset":1728,
			"target":34963
		},
		{
			"buffer":0,
			"byteLength":432,
			"byteOffset":2016,
			"target":34962
		},
		{
			"buffer":0,
			"byteLength":432,
			"byteOffset":2448,
			"target":34962
		},
		{
			"buffer":0,
			"byteLength":120,
			"byteOffset":2880,
			"target":34963
		},
		{
			"buffer":0,
			"byteLength":432,
			"byteOffset":3000,
			"target":34962
		},
		{
			"buffer":0,
			"byteLength":432,
			"byteOffset":3432,
			"target":34962
		},
		{
			"buffer":0,
			"byteLength":120,
			"byteOffset":3864,
			"target":34963
		},
		{
			"buffer":0,
			"byteLength":936,
			"byteOffset":3984,
			"target":34962
		},
		{
			"buffer":0,
			"byteLength":936,
			"byteOffset":4920,
			"target":34962
		},
		{
			"buffer":0,
			"byteLength":624,
			"byteOffset":5856,
			"target":34962
		},
		{
			"buffer":0,
			"byteLength":288,
			"byteOffset":6480,
			"target":34963
		},
		{
			"buffer":0,
			"byteLength":936,
			"byteOffset":6768,
			"target":34962
		},
		{
			"buffer":0,
			"byteLength":936,
			"byteOffset":7704,
			"target":34962
		},
		{
			"buffer":0,
			"byteLength":624,
			"byteOffset":8640,
			"target":34962
		},
		{
			"buffer":0,
			"byteLength":936,
			"byteOffset":9264,
			"target":34962
		},
		{
			"buffer":0,
			"byteLength":936,
			"byteOffset":10200,
			"target":34962
		},
		{
			"buffer":0,
			"byteLength":624,
			"byteOffset":11136,
			"target":34962
		},
		{
			"buffer":0,
			"byteLength":936,
			"byteOffset":11760,
			"target":34962
		},
		{
			"buffer":0,
			"byteLength":936,
			"byteOffset":12696,
			"target":34962
		},
		{
			"buffer":0,
			"byteLength":624,
			"byteOffset":13632,
			"target":34962
		},
		{
			"buffer":0,
			"byteLength":936,
			"byteOffset":14256,
			"target":34962
		},
		{
			"buffer":0,
			"byteLength":936,
			"byteOffset":15192,
			"target":34962
		},
		{
			"buffer":0,
			"byteLength":624,
			"byteOffset":16128,
			"target":34962
		}
	],
	"buffers":[
		{
			"byteLength":16752,
			"uri":"room.bin"
		}
	]
}
